<svg xmlns="http://www.w3.org/2000/svg" viewBox="0 0 512 512" width="512" height="512">
  <defs>
    <linearGradient id="bg" x1="0" y1="0" x2="1" y2="1">
      <stop offset="0" stop-color="#6366f1"/>
      <stop offset="1" stop-color="#8b5cf6"/>
    </linearGradient>
  </defs>

  <!-- Background rounded square -->
  <rect x="0" y="0" width="512" height="512" rx="96" ry="96" fill="url(#bg)"/>

  <!-- ── Brain icon – left hemisphere (semicircle) ── -->
  <path d="M246 148 C246 148 158 148 130 208 C110 250 120 298 148 324 C168 342 200 350 222 345 C234 342 246 334 246 322"
        fill="none" stroke="#ffffff" stroke-width="24" stroke-linecap="round" stroke-linejoin="round"/>

  <!-- ── Brain icon – right hemisphere (semicircle) ── -->
  <path d="M266 148 C266 148 354 148 382 208 C402 250 392 298 364 324 C344 342 312 350 290 345 C278 342 266 334 266 322"
        fill="none" stroke="#ffffff" stroke-width="24" stroke-linecap="round" stroke-linejoin="round"/>

  <!-- ── Center dividing line ── -->
  <line x1="256" y1="136" x2="256" y2="336" stroke="#ffffff" stroke-width="20" stroke-linecap="round"/>

  <!-- ── Left hemisphere fold line ── -->
  <path d="M196 210 C168 230 166 282 192 306"
        fill="none" stroke="#ffffff" stroke-width="18" stroke-linecap="round"/>

  <!-- ── Right hemisphere fold line ── -->
  <path d="M316 210 C344 230 346 282 320 306"
        fill="none" stroke="#ffffff" stroke-width="18" stroke-linecap="round"/>

  <!-- ── Neural connection dots ── -->
  <circle cx="256" cy="132" r="14" fill="#ffffff"/>
  <circle cx="256" cy="340" r="12" fill="#ffffff"/>
  <circle cx="118" cy="254" r="12" fill="#ffffff" fill-opacity="0.85"/>
  <circle cx="394" cy="254" r="12" fill="#ffffff" fill-opacity="0.85"/>

  <!-- ── Sparkle top-right ── -->
  <circle cx="390" cy="88" r="9" fill="#ffffff" fill-opacity="0.55"/>
  <circle cx="418" cy="66" r="6" fill="#ffffff" fill-opacity="0.40"/>
  <circle cx="362" cy="62" r="5" fill="#ffffff" fill-opacity="0.35"/>
</svg>
